<svg width="37" height="37" viewBox="0 0 37 37" fill="none" xmlns="http://www.w3.org/2000/svg">
<path d="M18.5 0.925C18.5 0.414137 18.9145 -0.0024127 19.4247 0.0231102C23.4982 0.226879 27.4003 1.77243 30.5148 4.43249C33.8643 7.29325 36.0832 11.2553 36.7722 15.606C37.4613 19.9566 36.5754 24.4104 34.2738 28.1662C31.9723 31.922 28.4061 34.7334 24.2168 36.0945C20.0275 37.4557 15.49 37.2775 11.4204 35.5918C7.35075 33.9061 4.01616 30.8236 2.01638 26.8988C0.0165915 22.974 -0.517149 18.4645 0.511158 14.1813C1.46732 10.1985 3.7157 6.6546 6.89147 4.0954C7.28924 3.77485 7.8694 3.86822 8.16968 4.28152C8.46996 4.69482 8.37643 5.27136 7.98044 5.59412C5.1602 7.89278 3.16336 11.0588 2.31004 14.6131C1.38457 18.468 1.86493 22.5266 3.66474 26.0589C5.46455 29.5913 8.46567 32.3655 12.1283 33.8826C15.791 35.3997 19.8747 35.5602 23.6451 34.3351C27.4155 33.11 30.6251 30.5798 32.6965 27.1996C34.7679 23.8194 35.5652 19.811 34.945 15.8954C34.3248 11.9798 32.3279 8.41393 29.3133 5.83924C26.5338 3.46531 23.0574 2.07764 19.4246 1.87568C18.9145 1.84732 18.5 1.43586 18.5 0.925Z" fill="#00D900"/>
</svg>
